<?xml version="1.0" encoding="UTF-8"?>
<svg id="Paper" xmlns="http://www.w3.org/2000/svg" version="1.1" viewBox="0 0 900 900">
  <defs>
    <style>
      .cls-1 {
        fill: #1d1d1b;
        stroke-width: 0px;
      }
    </style>
  </defs>
  <path class="cls-1" d="M731,379c-2-37.7-3.8-84-33.6-111.3-17.4-15.9-40.3-26-63.6-30.7-1.3-11.7-3.6-23.3-6.2-34.7-3.6-16-8.3-31.7-14-47-4.7-12.7-10.1-24.9-20.2-34.3-20.2-18.8-51-22.1-77.5-15.6-11.8-20.9-31.4-38.4-55.3-42.5-27.3-4.7-58.8,5.2-78,25.9-15-6-31.8-6.2-47.7-3.2-20.2,3.8-42.6,12.1-52.7,31.3-6.4,12.2-8.9,26.5-8.9,40.8-8.6-1.4-18.1-.9-27.8.5-22.6,3.2-47.5,11-58.6,32.9-9.2,18.4-5.1,42.3-4.2,62.1,1.3,28.1,2.6,56.3,3.3,84.4,1.2,52.7,4.2,105.1,11.8,157.4,3.4,24,7.7,47.9,14.4,71.2,6.2,21.4,14.7,42.2,22.8,62.9,13.1,33.1,26.7,66,40.8,98.7-6.7,21.7-11.2,46.8-3.2,68.5,7.9,21.3,26.3,30.4,47,35.9,44.5,12,93,16.4,139.1,16.6,20.3,0,40.6,1.2,60.9-.2,26.7-1.8,53-7.4,78.2-16.5,21.3-7.7,41.4-18.5,51.1-40,7.1-15.8,7.4-33.2,4-50-1.4-7.1-3.6-14.2-6.5-21,23.9-41.2,46-83.7,62.7-128.4,11.1-29.6,19.5-60.6,21.1-92.3,2-40.4,2.9-81,.8-121.4ZM701,501.2c-2.4,47.7-23.7,97.7-45.3,141.4-8.5,17.2-17.6,34.1-27,50.8-4.6,8.2-14.3,19.1-13,28.8.4,2.7,1.5,4.8,2.6,7.2.4.9.9,1.9,1.3,2.8.1.3.2.7.4,1.2,1.3,3.7,2.6,7.4,3.6,11.2,2.1,8.3,3.3,15.7,2.1,24.3-4.4,31.6-45.9,39.9-72.6,45.7-31.3,6.7-62.6,5-94.4,4.9-28.9,0-58-2.6-86.7-6.8-13.9-2-27.9-4.5-41.6-7.9-9.8-2.5-20-4-26.4-11.3-7.9-9.1-7-23.9-5.5-35,1.7-12.5,10.3-27.2,5.1-39.2-6.6-15.5-13.3-31-19.8-46.6-22.4-53.8-45-107.3-54.9-165.1-11.4-66.9-12.4-134.1-14.9-201.8-.7-18.8-1.6-37.6-2.5-56.4-.6-12.3-2.6-26-1-38.3,2-14.6,17.5-20.1,30-22.7,8-1.7,31.7-8.1,36.4,2.4,6.7,62.2,13.3,124.6,17.1,187.1,1.1,18.7,30.3,18.8,29.2,0-3.9-63.7-10.7-127.3-17.5-190.7,0-.1,0-.2,0-.4,0-1.1-.2-2.3-.5-3.5-1.6-7-1.7-8.3-2.2-14.8-.9-11.1-1.2-22.9,2.7-33.5,4.7-13,17.8-16.8,30.7-20,12.1-3,24.8-3.5,36.1,1.3,3.6,57.5,7.5,114.9,12,172.3,1.5,18.4,3,36.8,4.9,55.1.8,7.8,6.1,14.6,14.6,14.6s15.4-6.7,14.6-14.6c-7.5-71.2-11.5-142.9-16.1-214.4-.4-5.9-.8-11.8-1.1-17.7,2.9-3.2,5.9-6.4,9.4-9,12.2-9.2,29.2-14,44.3-11.3,12.2,2.2,22.6,10.5,29.7,19.8,3,3.9,5.5,8.2,7.8,12.6.3.6.6,1.3.9,1.9-2.5,72.2-4,145,1.1,217.1,1.3,18.6,30.5,18.8,29.2,0-4.8-69.4-3.7-139.5-1.3-209,17.5-4.4,38.2-4.5,51.7,9.2,8,8.1,11.3,19.7,14.8,30.3,4.4,12.9,8,26.1,10.9,39.4,2.4,11,4.3,20.4,5.2,30.6-15,15.3-21.4,40.5-26.2,60.1-11,44.7-15.6,91.1-19.2,137-58.7,18.4-104.8,71.6-120,130-4.7,18.2,23.4,25.9,28.1,7.8,9.7-37.4,31.8-69.7,64.1-91.1,5.7-3.8,11.7-7.3,17.8-10.4,2.7-1.4,5.5-2.7,8.3-4,.4-.2,2.3-1,2.8-1.2.7-.3,1.4-.6,2.1-.8,4.7-1.8,9.5-3.6,14.4-4.8,6.6-1.6,10.2-7.8,10.7-14.1,3.6-46.4,7.7-93.3,18.6-138.6,1.7-7.1,3.6-14.1,5.8-21.1,1-3,2-5.9,3.1-8.8.4-1.1.8-2.2,1.3-3.3.2-.5.8-1.9,1-2.2,2-4.2,4.2-8.1,6.7-12,.1-.2.2-.4.3-.5,0,0,.2-.2.2-.3,1.3.3,2.6.5,4,.8,8.9,2.1,17.8,4.7,26,8.6,10,4.7,19.5,10.7,26.8,19.1,8.1,9.1,11.2,20.3,13.7,32,6.3,29.6,7,60.5,7.2,90.6.2,28.3-.5,56.7-1.9,85Z"/>
</svg>