<?xml version="1.0" encoding="UTF-8"?>
<svg id="Rock" xmlns="http://www.w3.org/2000/svg" version="1.1" viewBox="0 0 900 900">
  <defs>
    <style>
      .cls-1 {
        fill: #1d1d1b;
        stroke-width: 0px;
      }
    </style>
  </defs>
  <path class="cls-1" d="M648.5,702.7c28.7-48.6,75.4-84.4,81.9-144.8,2.2-20.2-1.6-41-4-61.1-3.8-32.7-5.9-66.3-12.4-98.6-4.6-23.3-14.4-43.4-34.5-56-16.6-10.3-35.9-16.6-54.9-21.1-2.8-16.3-5.3-32.7-7.7-49-3.1-20.9-4.8-43.7-19.7-59.7-13.3-14.3-33.1-18.6-51.3-21.1-25.1-3.6-51.3-5.4-75.3,4.7-8.1,3.4-16.2,7.9-22.9,14-29.9-11.4-66.4-4.3-95.3,6-17.4,6.2-34.5,17.1-44.8,33.3-24.4,3-49.6,8.9-71.2,20.7-26.8,14.7-41.6,45.2-40.1,76-12.4,8.3-23.7,19.2-32.1,31.5-16.9,24.5-20.9,62.5-18.2,91.7,2.7,30.3,14.7,55.2,32.2,79.2,4.7,6.5,9.6,12.8,14.6,19,0,0,0,0,0,0,1.2,1.6,2.4,3.2,3.7,4.6,2,2.4,3.9,4.8,5.9,7.1,2.8,3.3,5.6,6.5,8.3,9.8,1,1.2,1.9,2.3,2.9,3.5.1.1.2.2.3.3,20.7,30.1,40.4,61.2,59.4,92.5,6.5,10.7,12.2,23.2,7.9,35.9-2.9,8.7-7,16.4-8.5,25.6-4.8,29.2,10.3,55.5,32.6,72.4,22,16.7,51,21.9,77.4,25,27.3,3.1,54.8,2.8,82.2,2.2,33.9-.8,67.9-3,101.2-9.9,27.2-5.6,61-12.6,78.2-37.5,12.1-17.5,12.5-40.8,7.6-61-.9-3.9-2.1-7.7-3.6-11.5-1-2.8-2.8-9.7-5.1-12.2,0-.1,0-.3.1-.4.9-3.3,3-7.2,5.2-11ZM472,228.9c1.9-1.2,3.8-2.3,5.8-3.3,3.7-1.8,7.6-3.2,11.7-4.3,14.6-4,29.7-3,44.5-1.3,10.8,1.2,22.2,2.6,32.3,6.8,5.9,2.5,10.6,6.1,13.2,10.8,4.5,8.1,6.1,19.2,7.6,29.6,2.7,18.9,5.6,37.8,8.7,56.6-24.8,14-52.5,21.2-80.7,22.5-10.7.5-22.3.5-32.9,3.3-11.8-18.4-19.8-39.9-25.2-61-1.3-5.2-2.7-10.5-3.3-15.8-.2-1.6-.2-3.6-.3-5.3,0-.6.2-3.1.2-3.1,1.8-9.5,5.9-19.6,10-28.3,1.7-1.6,3.2-3.3,5-4.9.2,0,3-2.1,3.4-2.4ZM363.2,244.1c20.2-6.4,46.8-13.8,68.7-7.9-2.6,6.8-4.9,13.8-6.4,20.7-2.5,11.5-.3,23.7,2.3,34.9,5.8,25.4,15.7,52.3,30,74.1-6.5,9.1-9.9,20.6-13.1,31.7-4.5,15.8-7.9,32.4-9.3,48.9-19,5.6-39.4-20-49.3-33-12.9-16.9-24.1-35.7-35.1-54-9.9-16.3-20.7-33.5-26.6-51.9-3.5-10.8-1.7-26.4,4.7-36.7,0-.1,1.5-3,2.2-4.3,1.9-3.5,1.3-2.4,4.5-5.8,7.5-8.1,17.1-13.5,27.4-16.8ZM228.2,323.5c4.6-15.1,15.4-24.4,29-30.5,11.8-5.3,24.5-8.5,37.1-11-5,34.3,17.1,69.1,34.6,97.7,18.1,29.5,44.5,77.2,79,92.4-7.5,12.5-16.4,26.1-25.7,31.7-8.2,5-25.9,6.9-37.1,3.9-3.6-1-7-2.3-10.2-4.2-1.5-.9-2.8-1.8-4.2-2.8,0,0,0,0,0,0-2.4-2.3-4.6-4.7-6.8-7.3-28.6-33.3-52.9-73.9-77.2-111.9-7-11-14-21.9-20.9-33-.1-1.6-.2-3.3-.3-4.9-.1-6.9.7-13.5,2.7-20.1ZM183,403.8c4.7-11.7,14-21.6,24.4-29.3,18.4,29.3,37.2,58.4,56.7,86.9,13,19.1,26,38.9,41.5,55.9,2.9,3.1,6,5.9,9.2,8.4-1.6,1.9-3.1,3.7-4.7,5.5-8.6,9.6-17.9,19.1-29.1,25.4-10.9,6.1-24,6.9-36.1,5.4-6.6-.8-18.3-3.2-24.3-7.5-13.8-16.8-27.5-33.5-37-53.4-13.5-28.2-11.9-68.5-.5-97.3ZM632,674.4c-10.4,14.7-23.9,34.5-15.1,53.2,5.2,11.2,10.2,24.6,8.6,39.3-3,27-33.9,32.5-55.2,37.8-34.5,8.5-70.1,10.7-105.5,11.5-22.1.5-44.2.8-66.2-.7-21.9-1.5-45.5-4.3-65.5-14.2-17.1-8.4-34.9-26.1-32.2-47.4,1.2-9.3,4.4-14.2,7.4-22.2,5.3-14.2,4.1-30-1.2-44-6.5-17.3-18.2-32.9-28-48.3-9.8-15.4-19.6-30.7-29.5-45.9,12.9.4,25.6-1.6,36-5.7,23.1-9.1,42.1-29.4,57.2-49.7,15.4,3,31.9,1.2,46.6-4.5,14.9-5.7,24.5-19.1,33.7-31.9,5-7,9.8-14.2,14.2-21.6,2,7,5.3,13.5,10.7,19.1,6.4,6.7,14.1,12,22.5,16.3-21.5,17-41.3,37.5-51.1,63-7.7,20-11.4,41.9-12.8,63.4-1.2,18.9-1,40.6,8.4,57.5,9.3,16.8,34.5,1.6,25.1-15.2-6-10.8-5.3-29.7-4.3-43.5,1.3-18.1,4.6-37.3,11.6-54,10.4-24.7,35.1-44,56.7-59,4.7,1.2,9.3,2.2,13.9,3.1,23.3,4.6,46.7,9,70,13.4,18.3,3.5,26.1-25.6,7.7-29.1-17.9-3.4-35.8-6.8-53.7-10.2-20.4-3.9-41.2-7.3-59.9-17.4-10.4-5.6-17.5-10.7-18.1-22.9-.7-15.7,2.1-31.5,5.7-46.8,2.6-10.7,4.9-32,16-37.2,11.2-5.2,25.9-3.3,37.8-4.1,30.6-2,61.4-11.3,88.2-26.9,16.1,3.5,32.8,8,47.3,15.8,13.9,7.5,20.4,15.2,24.8,32,7.6,28.8,8.8,60,12.2,89.6,2.2,19.3,5.8,39.1,5.8,58.5.2,52.1-42.5,90.3-70,129.2Z"/>
</svg>