<?xml version="1.0" encoding="UTF-8"?>
<svg id="Warstwa_1" data-name="Warstwa 1" xmlns="http://www.w3.org/2000/svg" version="1.1" viewBox="0 0 900 900">
  <defs>
    <style>
      .cls-1 {
        fill: #1d1d1b;
        stroke-width: 0px;
      }
    </style>
  </defs>
  <path class="cls-1" d="M679.2,399.1c-10.2-21-23.3-41.4-38.6-59.3,4.5-51,9.1-102.1,12.7-153.2,2.3-33.1-3.9-67.8-35.4-85.3-29.9-16.6-75.2-18.4-103.2,3.5-6.5-23.6-27.3-36.2-50.8-40.1-26.9-4.5-57.6-4.2-78.1,16.6-15.8,16.1-18.1,37.6-20.6,58.9-2.5,20.5-4.8,40.9-7.1,61.4-3.7,32.9-7.3,65.9-10.9,98.8-20.3,3.8-41.9,10.6-57.9,22.7-13.7,10.3-24.2,24.7-31.7,40.2-21.3,3.6-42.8,12.1-58.5,26.9-16,15.1-26.3,41.1-28.4,62.8-1.3,12.7,0,25.6,1.6,38.2,2.6,21.5,5.8,42.9,9.8,64.2,7.8,41.2,20.5,81.5,34.5,120.9,7.6,21.4,15.8,42.7,24.6,63.6-7.5,30.6-13,67.1,17.6,86.4,14.1,8.9,32.2,13.8,48.3,17.6,24.1,5.7,49,7.7,73.7,8.4,36.5,1.1,73.4,1.4,109.7-2.6,20.6-2.3,41.3-5.3,61.3-11,16.4-4.6,34-11,46.4-23.2,21.7-21.4,22.7-57.1,15.5-85.8,12.4-15.3,24.1-31.3,34.7-47.8,14.8-23.1,23.7-47.9,31.3-74.1,9.8-33.9,17.4-68.9,19.8-104.3,2.6-36.9-4.2-71.4-20.4-104.7ZM527.1,133.5c1.2-1.6,5.7-5.9,8.7-7.8,5.4-3.4,11.3-5.4,17.5-6.4,15.1-2.5,33.1-.7,47,5.9,24.9,11.7,25.5,38.4,23.8,62.3-2,28.1-4.4,56.2-6.8,84.3-1.3,15.4-2.7,30.7-4,46.1-10.5-5.6-21.9-9.9-32.7-13.3-20-6.3-40.2-8.8-60.8-4.1-1.2.3-2.3.6-3.5.9.3-24.3.5-48.7.8-73,.2-22.6,4.2-87.1,10-94.8ZM391.5,165.7c1.6-14.1,2.7-31.2,5.4-43.6,5-22.8,22.1-31.5,44.5-30.7,18.4.7,41.8,3.5,45.9,24.1,2.6,13.2.7,87.1.6,106.2-.3,31.5-.6,63-1,94.5-11.8,9.8-20.2,22.9-25,37.7-6.8-8.9-14.2-17.3-22.6-24.3-17.6-14.6-39.8-25.3-62.7-29.5,2.6-23.5,5.1-47,7.7-70.5,2.4-21.3,4.7-42.7,7.2-64ZM308.8,345c14.8-9.8,34.4-14.7,52.1-17.5,1.2,0,2.3.2,3.4.3,0,0,.1,0,.2,0,.5,0,1.1.1,1.6.2,2.6.5,5.1.9,7.7,1.5,11.6,2.6,22.7,6.8,33,12.8,27.2,15.9,44.7,45.8,60.5,72.2,7.7,12.9,15,26,21.9,39.4,2.4,4.7,4.8,9.4,7,14.1.9,1.8,1.7,3.6,2.5,5.4,1,2.3,1.2,2.9,1.3,3.3,3.4,10.7,3.3,23-3.2,32.6-5.5,8.1-15.1,12.8-23.7,15.7-27.2,9.2-56.4,3.6-74.5-19.9-6.8-13.4-15.6-26-23.8-38.4-9.5-14.4-19.2-28.6-29.3-42.5-16.4-22.5-35.5-39.3-58.7-53.5.6-1.1,1.2-2.1,1.8-3.2,5.2-8.6,11.6-16.9,20.1-22.6ZM203.5,439.7c.3-1,.7-1.9,1.1-2.8,0-.1,0-.3.1-.3,0,0,0-.1,0-.2.9-2,1.8-4,2.8-6,2.3-4.9,4.5-10.3,7.8-14.6,8-10.5,21.2-16.4,33.5-20.2,5.1-1.6,10.3-2.8,15.5-3.8.2,0,.3,0,.5,0,12.6,7,25,14.7,35.6,24.4,3,2.7,5.8,5.7,8.6,8.6,1,1.1,2,2.1,2.9,3.2.5.6,1,1.2,1.4,1.8.1.1.2.2.3.3,0,0,0,0,.1.1,17.5,22.8,33.5,47,48.7,71.3,3,4.8,6.3,9.7,9.1,14.8.3,1.2.9,2.3,1.7,3.3,0,0,.1.2.2.2,3.7,7.6,5.9,15.6,3.8,24.2-3.2,13.4-14.6,23.5-27.3,27.7-17,5.6-36.1,6.4-53.7,3.4-15-2.6-26.9-8.3-39.4-16.8-18.8-12.8-36.1-28.3-52-44.4-.6-3.6-1.1-7.2-1.7-10.8-3.3-22.8-6.2-44.4.2-63.4ZM654.3,590.7c-7.7,28.2-16.4,54.2-32.4,78.8-8,12.3-16.7,24.3-25.8,35.9-5.8,7.4-14.6,14.9-12.5,25.2,3.8,18.5,9.2,38.7-.5,57-6.1,11.6-19.2,16.8-31.1,20.7-15.8,5.2-32.3,8.4-48.7,10.7-28.4,4-56.7,4.7-85.3,4.6-40.2-.2-80.7-.2-119.5-12.4-5.6-1.8-11.3-3.5-16.7-5.8-.6-.3-4-1.9-5.5-2.7-1.1-.6-2.2-1.3-3.2-1.9-1.2-.8-1.4-.8-1.4-.8,0,0,0,0-.7-.7-.7-.6-1.3-1.2-1.9-1.9-.3-.3-.4-.5-.6-.6,0,0,0,0,0,0-.4-.6-2.4-4.5-2.1-3.7-2.1-5.7-2-9.1-1.7-15.5.3-6.7,1.4-13.2,2.8-19.8,1.9-9,5.6-17.5,1.9-26.4-.4-.8-.5-1.2-.6-1.3-.1-.3-.3-.8-.6-1.4-1.8-4.3-3.6-8.7-5.3-13-20.1-50.2-36.9-101.1-48.6-153.5,8.4,7.1,17.1,13.8,26.1,20.1,32.4,22.6,72.8,29.2,111.2,19.6,27.5-6.9,49.4-28.1,54.6-53.9,17.5,9.3,37.6,12.6,59.2,9.1,30-4.8,60.1-22.9,65.4-55.1,4.7-28.7-10.8-53.8-24-77.9-6.4-11.8-13.2-23.3-20.3-34.7-.4-14.9,1.5-30.5,10.8-42.7,8-10.5,20.1-16,32.8-18.6,14.7-2.9,29,.2,43,4.6,14.8,4.7,31.4,11,42.4,22.4.2.2.4.4.6.6.3.3.5.7.8,1,6.7,8,12,14.9,18,23.9,20.4,30.3,35.7,64.3,36.4,101.3.6,36.8-7.1,73.5-16.7,108.9Z"/>
</svg>